<svg xmlns="http://www.w3.org/2000/svg" width="60" height="60" viewBox="0 0 60 60"><g><g><g><path fill="#2f3238" d="M59 60a1 1 0 0 1-1-1V16a2 2 0 0 0-2-2H4a2 2 0 0 0-2 2v40a2 2 0 0 0 2 2h49a1 1 0 1 1 0 2H4a4 4 0 0 1-4-4V16a4 4 0 0 1 4-4h34V4a2 2 0 0 0-2-2H24a2 2 0 0 0-2 2v3a1 1 0 1 1-2 0V4a4 4 0 0 1 4-4h12a4 4 0 0 1 4 4v8h16a4 4 0 0 1 4 4v43a1 1 0 0 1-1 1z"/></g><g><path fill="#26e6e6" d="M17 18a1 1 0 0 1 1 1v34a1 1 0 1 1-2 0V19a1 1 0 0 1 1-1zm-6 0a1 1 0 0 1 1 1v34a1 1 0 1 1-2 0V19a1 1 0 0 1 1-1zm38 0a1 1 0 0 1 1 1v34a1 1 0 1 1-2 0V19a1 1 0 0 1 1-1zm-6 0a1 1 0 0 1 1 1v34a1 1 0 1 1-2 0V19a1 1 0 0 1 1-1z"/></g></g></g></svg>