<svg xmlns="http://www.w3.org/2000/svg" width="60" height="60" viewBox="0 0 60 60"><g><g><g><path fill="#2f3238" d="M50 60H4a4 4 0 0 1-4-4V10a4 4 0 0 1 4-4h43a1 1 0 1 1 0 2H4a2 2 0 0 0-2 2v46a2 2 0 0 0 2 2h46a2 2 0 0 0 2-2V22H7a1 1 0 0 1 0-2h45V7a1 1 0 1 1 2 0v49a4 4 0 0 1-4 4z"/></g><g><path fill="#26e6e6" d="M8 12a2 2 0 1 1 0 4 2 2 0 0 1 0-4zm8 0a2 2 0 1 1 0 4 2 2 0 0 1 0-4zm8 0a2 2 0 1 1 0 4 2 2 0 0 1 0-4zm35 42a1 1 0 0 1-1-1V4a2 2 0 0 0-2-2H7a1 1 0 1 1 0-2h49a4 4 0 0 1 4 4v49a1 1 0 0 1-1 1z"/></g></g></g></svg>