<svg xmlns="http://www.w3.org/2000/svg" width="60" height="43" viewBox="0 0 60 43"><g><g><g><path fill="#2f3238" d="M45 43H20a4 4 0 0 1-4-4c0-.733.211-1.41.555-2H16a4 4 0 0 1-4-4H4a4 4 0 0 1-4-4V1a1 1 0 0 1 2 0v28a2 2 0 0 0 2 2h32a2 2 0 0 0 2-2 1 1 0 1 1 2 0 4 4 0 0 1-4 4H14a2 2 0 0 0 2 2h16v2H20a2 2 0 0 0 0 4h25c7.18 0 13-5.821 13-13 0-7.18-5.82-13-13-13H30a2 2 0 0 0 0 4h10a7 7 0 0 0 7 7 1 1 0 1 1 0 2c-4.283 0-7.868-2.993-8.777-7H30a4 4 0 1 1 0-8h8V4a2 2 0 0 0-2-2H7a1 1 0 0 1 0-2h29a4 4 0 0 1 4 4v9h5c8.284 0 15 6.715 15 15 0 8.283-6.716 15-15 15zM7 6h26a1 1 0 0 1 0 2H7a1 1 0 0 1 0-2z"/></g><g><path fill="#26e6e6" d="M7 12h14a1 1 0 0 1 0 1.999H7a1 1 0 1 1 0-2zm0 13h26a1 1 0 1 1 0 2H7a1 1 0 1 1 0-2z"/></g></g></g></svg>