<svg xmlns="http://www.w3.org/2000/svg" width="60" height="60" viewBox="0 0 60 60"><g><g><g><path fill="#26e6e6" d="M40.71 19.288c.409.409.409 1.07 0 1.478L22.8 38.677a1.045 1.045 0 0 1-1.478-1.477l17.91-17.912a1.045 1.045 0 0 1 1.479 0z"/></g><g><path fill="#2f3238" d="M58.796 12.53L22.531 48.796a3.994 3.994 0 0 1-2.114 1.106.98.98 0 0 1-.417.097h-9a.996.996 0 0 1-.922-.61.997.997 0 0 1-.078-.39v-8.684V40c0-.076.027-.144.044-.216a3.979 3.979 0 0 1 1.128-2.346L47.438 1.172a4.016 4.016 0 0 1 5.679 0l5.68 5.679a4.016 4.016 0 0 1 0 5.679zm-1.382-4.285l-5.691-5.692a2.012 2.012 0 0 0-2.846 0l-6.492 6.492c.14.05.27.132.382.244l3.91 3.91a1.044 1.044 0 1 1-1.477 1.478l-3.91-3.91a1.04 1.04 0 0 1-.244-.382L12.955 38.476l8.537 8.537 35.922-35.922a2.012 2.012 0 0 0 0-2.846zM12 47.999h7.522L12 40.477zM2 59a1 1 0 1 1-2 0V1a1 1 0 0 1 1-1h30a1 1 0 0 1 0 2H2zm5 1a1 1 0 0 1 0-2h51V29a1 1 0 0 1 2 0v30a1 1 0 0 1-1 1z"/></g></g></g></svg>