<svg xmlns="http://www.w3.org/2000/svg" width="80" height="68" viewBox="0 0 80 68"><defs><clipPath id="2gz2a"><path fill="#fff" d="M.066 30.82C1.344 11.509 21.414-1.863 43.028.212 64.55 2.278 79.66 17.787 80.01 34.664c.361 17.428-15.187 33.246-38.346 33.324-23.526.08-42.927-17.1-41.598-37.168z"/></clipPath></defs><g><g><g opacity=".4"><path fill="none" stroke="#fff" stroke-miterlimit="50" stroke-width="6" d="M.066 30.82C1.344 11.509 21.414-1.863 43.028.212 64.55 2.278 79.66 17.787 80.01 34.664c.361 17.428-15.187 33.246-38.346 33.324-23.526.08-42.927-17.1-41.598-37.168z" clip-path="url(&quot;#2gz2a&quot;)"/></g><g opacity=".5"><path fill="none" stroke="#fff" stroke-linecap="round" stroke-linejoin="round" stroke-miterlimit="50" stroke-width="3" d="M36.112 26.746v0l-3.52 11.579v0l13.656-.407v0"/></g></g></g></svg>