<svg xmlns="http://www.w3.org/2000/svg" width="60" height="46" viewBox="0 0 60 46"><g><g><g><path fill="#2f3238" d="M56 45.999H4a4 4 0 0 1-4-4V7a1 1 0 0 1 2 0v35a2 2 0 0 0 2 2h52a2 2 0 0 0 2-2V4a2 2 0 0 0-2-2H1a1 1 0 0 1 0-2h55a4 4 0 0 1 4 4v38a4 4 0 0 1-4 4z"/></g><g><path fill="#26e6e6" d="M53.692 6.276a1.002 1.002 0 0 1 0 1.417L30.854 30.53a1.005 1.005 0 0 1-.854.454.998.998 0 0 1-.854-.455L6.308 7.693a1.002 1.002 0 0 1 1.417-1.417L30 28.551 52.275 6.276a1.003 1.003 0 0 1 1.417 0z"/></g></g></g></svg>