<svg xmlns="http://www.w3.org/2000/svg" width="70" height="70" viewBox="0 0 70 70"><defs><clipPath id="4eisa"><path fill="#fff" d="M35 0c19.33 0 35 15.67 35 35S54.33 70 35 70 0 54.33 0 35 15.67 0 35 0z"/></clipPath></defs><g><g><g opacity=".2"><path d="M35 0c19.33 0 35 15.67 35 35S54.33 70 35 70 0 54.33 0 35 15.67 0 35 0z"/><path fill="none" stroke="#fff" stroke-miterlimit="50" stroke-width="6" d="M35 0c19.33 0 35 15.67 35 35S54.33 70 35 70 0 54.33 0 35 15.67 0 35 0z" clip-path="url(&quot;#4eisa&quot;)"/></g><g opacity=".4"><path fill="none" stroke="#fff" stroke-linecap="round" stroke-linejoin="round" stroke-miterlimit="50" stroke-width="3" d="M37.172 28.1v0l-7.676 6.699v0l7.504 6.2v0"/></g></g></g></svg>