<svg xmlns="http://www.w3.org/2000/svg" width="77" height="64" viewBox="0 0 77 64"><defs><clipPath id="of5pa"><path fill="#fff" d="M4.848 43.7C-5.412 25.222 5.9 5.872 26.368 1.12 45.172-3.246 64.34 5.596 72.622 19.302c8.378 13.865 4.9 31.74-12.095 40.43-18.202 9.305-45.049 3.11-55.679-16.033z"/></clipPath></defs><g><g><g opacity=".4"><path fill="none" stroke="#fff" stroke-miterlimit="50" stroke-width="6" d="M4.848 43.7C-5.412 25.222 5.9 5.872 26.368 1.12 45.172-3.246 64.34 5.596 72.622 19.302c8.378 13.865 4.9 31.74-12.095 40.43-18.202 9.305-45.049 3.11-55.679-16.033z" clip-path="url(&quot;#of5pa&quot;)"/></g><g><path fill="none" stroke="#fff" stroke-linecap="round" stroke-linejoin="round" stroke-miterlimit="50" stroke-width="3" d="M41.03 37.735v0l3.53-11.585v0l-13.696.407v0"/></g></g></g></svg>