<svg xmlns="http://www.w3.org/2000/svg" width="1001" height="480" viewBox="0 0 1001 480"><defs><clipPath id="tilpa"><path fill="#fff" d="M299 36V0h36v36zm2.5-18c0 8.56 6.94 15.5 15.5 15.5 8.56 0 15.5-6.94 15.5-15.5 0-8.56-6.94-15.5-15.5-15.5-8.56 0-15.5 6.94-15.5 15.5z"/></clipPath></defs><g><g clip-path="url(#clip-49)"><path fill="#f80" d="M.182 180.71l317.884-163.1 107.382 121.048 102.593 49.256 40.831 53.36h96.375l93.267-10.262 93.266 65.674 99.485-82.093 96.375 28.733v151.87L1.944 437.25z"/></g><g clip-path="url(#clip-49)"><path fill="#b52685" d="M9.273 175.6l105.702 22.575 105.94-14.169 70.484-84.929 87.831 66.261 99.484 57.465 87.05 71.83 105.701-12.313L764.732 309l90.157 24.627 90.158-32.837 102.593 6.157V450.61H12.382z"/></g><g clip-path="url(#clip-49)"><path fill="#e5c154" d="M8.6 395.196l103.266-73.843 90.158 19.739 111.523-86.942 68.792 48.693 102.593-10.262 83.94 43.099 96.375-34.89 90.158 22.576 90.158 28.732 96.375-47.203 117.741 8.21V479.34H8.6z"/></g><g><path fill="#fff" d="M317 2.5c8.56 0 15.5 6.94 15.5 15.5 0 8.56-6.94 15.5-15.5 15.5-8.56 0-15.5-6.94-15.5-15.5 0-8.56 6.94-15.5 15.5-15.5z"/><path fill="none" stroke="#ed322d" stroke-linecap="round" stroke-linejoin="round" stroke-miterlimit="50" stroke-width="4" d="M317 2.5c8.56 0 15.5 6.94 15.5 15.5 0 8.56-6.94 15.5-15.5 15.5-8.56 0-15.5-6.94-15.5-15.5 0-8.56 6.94-15.5 15.5-15.5z" clip-path="url(&quot;#tilpa&quot;)"/></g><g><path fill="#cacaca" d="M316.5 19v-1h117v1z"/></g><g><path fill="#ed322d" d="M317 11a7 7 0 1 1 0 14 7 7 0 0 1 0-14z"/></g><g><g><text dominant-baseline="text-before-edge" style="line-height:44px" fill="#383838" font-family="'Roboto','Roboto-Light'" font-size="20" font-style="none" font-weight="lighter" transform="translate(447 9)"><tspan style="font-kerning:normal">Interdum tincidunt</tspan></text></g></g><g><g><text dominant-baseline="text-before-edge" style="line-height:21px" fill="#7e7e7e" font-family="'Roboto','Roboto-Light'" font-size="14" font-style="none" font-weight="lighter" transform="translate(448 46)"><tspan style="font-kerning:normal">nec laoreet volutpat, mi diam consectetur </tspan><tspan style="font-kerning:normal">nisl, a vestibulum enimer</tspan></text></g></g></g></svg>